<!--?xml version="1.0" standalone="no"?-->
              <svg id="sw-js-blob-svg" viewBox="0 0 100 100" xmlns="http://www.w3.org/2000/svg" version="1.1">
                    <defs> 
                        <linearGradient id="sw-gradient" x1="0" x2="1" y1="1" y2="0">
                            <stop id="stop1" stop-color="rgba(255, 174, 0, .7)" offset="0%"></stop>
                            <stop id="stop2" stop-color="rgb(255, 174, 0)" offset="100%"></stop>
                        </linearGradient>
                    </defs>
                <path fill="url(#sw-gradient)" d="M24.3,-27.9C30.6,-23.6,34.3,-15.2,34.7,-7C35.1,1.1,32.1,9,28.1,16.5C24.1,24.1,19.1,31.3,12.6,32.8C6.2,34.4,-1.6,30.2,-7.6,25.9C-13.6,21.5,-17.7,17.1,-20.2,12C-22.7,7,-23.5,1.3,-23.1,-4.6C-22.6,-10.4,-20.8,-16.6,-16.8,-21.3C-12.7,-26,-6.4,-29.4,1.3,-30.9C9,-32.5,17.9,-32.2,24.3,-27.9Z" width="100%" height="100%" transform="translate(50 50)" stroke-width="0" style="transition: all 0.3s ease 0s;"></path>
              </svg>